<?xml version="1.0" standalone="no"?>
<!DOCTYPE svg PUBLIC "-//W3C//DTD SVG 20010904//EN"
 "http://www.w3.org/TR/2001/REC-SVG-20010904/DTD/svg10.dtd">
<svg version="1.0" xmlns="http://www.w3.org/2000/svg"
 width="3405.000000pt" height="3405.000000pt" viewBox="0 0 3405.000000 3405.000000"
 preserveAspectRatio="xMidYMid meet">

<g transform="translate(0.000000,3405.000000) scale(0.100000,-0.100000)"
fill="#000000" stroke="none">
<path d="M0 17025 l0 -17015 17020 0 17020 0 0 17015 0 17015 -17020 0 -17020
0 0 -17015z m24308 8198 l122 -6 -2 -1636 -3 -1636 -7402 -3 -7403 -2 0 1640
0 1639 83 4 c158 6 14485 7 14605 0z m0 -6560 l122 -6 -2 -1636 -3 -1636
-7402 -3 -7403 -2 0 1640 0 1639 78 4 c148 6 14490 7 14610 0z m0 -6560 l122
-6 0 -1632 0 -1632 -122 -6 c-158 -9 -14428 -9 -14575 0 l-113 6 0 1633 0
1633 78 4 c148 6 14490 7 14610 0z"/>
</g>
</svg>
