<?xml version="1.0" encoding="UTF-8"?>
<svg version="1.1" xmlns="http://www.w3.org/2000/svg" width="1482" height="1641">
<path d="M0 0 C0.75828596 0.00006401 1.51657192 0.00012801 2.29783624 0.00019396 C3.17189346 -0.00215894 4.04595069 -0.00451183 4.9464945 -0.00693603 C5.92033973 -0.00442715 6.89418496 -0.00191828 7.89754065 0.00066663 C8.9272656 -0.00061146 9.95699055 -0.00188954 11.01791929 -0.00320636 C14.52179475 -0.00630654 18.02562644 -0.00218343 21.52950051 0.0018173 C24.05640498 0.00107865 26.58330936 -0.00009887 29.11021345 -0.0016792 C34.64918235 -0.00412117 40.18813755 -0.00341069 45.72710571 -0.00001806 C54.01914618 0.00504103 62.31117928 0.00435862 70.60322074 0.00251537 C84.73192118 -0.00045709 98.86061751 0.00133017 112.98931744 0.00565965 C127.31646954 0.01003066 141.6436195 0.01223306 155.97077229 0.01175744 C157.3257989 0.0117144 157.3257989 0.0117144 158.70819979 0.0116705 C163.31401168 0.01151413 167.91982356 0.01132218 172.52563544 0.01111766 C205.90309733 0.00970842 239.28055731 0.01314702 272.65801861 0.01913507 C305.7231979 0.02505294 338.78837637 0.02890924 371.85355618 0.02998788 C372.87956877 0.03002229 373.90558137 0.0300567 374.96268525 0.03009216 C384.33341587 0.03040535 393.7041465 0.03069304 403.07487712 0.03095013 C426.37183897 0.03158962 449.66880081 0.03254899 472.96576264 0.03372533 C474.55728721 0.03380531 474.55728721 0.03380531 476.18096379 0.0338869 C527.82198654 0.03650986 579.46300875 0.04281801 631.10403111 0.04942567 C649.02973097 0.05171728 666.95543084 0.05399263 684.88113072 0.05620057 C685.9928499 0.05633752 687.10456908 0.05647447 688.24997672 0.05661557 C739.90896325 0.06295698 791.56794987 0.06668438 843.22693669 0.06973537 C846.57973675 0.06993343 849.93253682 0.07013263 853.28533688 0.07033205 C875.50409254 0.0716518 897.72284821 0.07292646 919.94160388 0.07417091 C964.15327065 0.07664756 1008.36493741 0.07938925 1052.57660416 0.08231295 C1054.68218751 0.08245219 1056.78777087 0.08259125 1058.89335422 0.08273012 C1123.76253526 0.08700946 1188.63171612 0.09248524 1253.50089695 0.0992151 C1256.11803733 0.09948593 1258.7351777 0.09975676 1261.35231808 0.10002749 C1333.99392107 0.10757899 1406.63552392 0.11638491 1479.27712681 0.12486512 C1479.27712681 108.69486512 1479.27712681 217.26486512 1479.27712681 329.12486512 C1306.70583344 329.14501116 1306.70583344 329.14501116 1258.99326322 329.14994679 C1256.21072559 329.15023472 1253.42818796 329.15052269 1250.64565033 329.15081137 C1185.67628722 329.15755097 1120.70692408 329.16292337 1055.73756077 329.16720826 C1053.62878982 329.16734771 1051.52001887 329.16748717 1049.41124791 329.16762662 C1005.15094323 329.17054909 960.89063853 329.17326583 916.63033381 329.1757448 C894.39805558 329.17699023 872.16577734 329.1782752 849.93349911 329.17959757 C846.57977175 329.17979681 843.22604439 329.17999493 839.87231703 329.180193 C788.20858809 329.18325423 736.54485937 329.18716538 684.88113072 329.19352968 C683.21396698 329.19373502 683.21396698 329.19373502 681.51312317 329.19394452 C663.5925339 329.19615699 645.67194465 329.19844056 627.75135539 329.20073356 C576.15615787 329.20733428 524.56096054 329.21341219 472.96576264 329.21600492 C471.90551843 329.21605845 470.84527423 329.21611199 469.75290142 329.21616715 C446.48211618 329.21733271 423.21133094 329.21822766 399.94054568 329.21886611 C390.57821584 329.21912774 381.21588601 329.21942836 371.85355618 329.21974237 C370.82886804 329.21977579 369.8041799 329.21980922 368.74844061 329.21984366 C335.69239829 329.22094142 302.63635732 329.22521695 269.58031555 329.23114733 C236.30186679 329.23710314 203.02341933 329.23996684 169.74497002 329.23848911 C165.15357078 329.23828601 160.56217153 329.23811864 155.97077229 329.23797281 C155.07067172 329.23794293 154.17057116 329.23791304 153.24319482 329.23788226 C138.95022867 329.23750056 124.65726527 329.24049517 110.36429987 329.24487499 C96.33393365 329.24910572 82.30357102 329.24981578 68.27320447 329.24669694 C60.03194816 329.24497335 51.79070316 329.24603434 43.54944815 329.25108213 C37.45486691 329.25451469 31.36029909 329.25281666 25.26571758 329.2490051 C22.79785182 329.24828371 20.32998488 329.24928256 17.86212062 329.25210037 C14.54057311 329.25565606 11.21908612 329.2531863 7.89754065 329.24906362 C6.4367728 329.25282694 6.4367728 329.25282694 4.9464945 329.25666628 C4.07243727 329.25431338 3.19838005 329.25196049 2.29783624 329.24953629 C1.53955028 329.2496003 0.78126432 329.2496643 0 329.24973025 C-1.72287319 329.12486512 -1.72287319 329.12486512 -2.72287319 328.12486512 C-2.82113577 326.38475423 -2.84842921 324.64061349 -2.84871433 322.89773042 C-2.85132208 321.75728572 -2.85392982 320.61684101 -2.85661659 319.44183738 C-2.85438587 318.17309225 -2.85215515 316.90434712 -2.84985683 315.59715516 C-2.8510077 314.24819465 -2.852595 312.89923445 -2.85458408 311.55027492 C-2.85878207 307.82614182 -2.8566846 304.10203414 -2.85359786 300.37790091 C-2.85134588 296.36831682 -2.85482236 292.35873727 -2.85757778 288.34915406 C-2.86203665 280.48755122 -2.86105849 272.62595789 -2.85816514 264.76435466 C-2.85591156 258.37803903 -2.85559838 251.99172608 -2.85668895 245.60541017 C-2.85684219 244.69829126 -2.85699542 243.79117234 -2.8571533 242.85656498 C-2.85747301 241.01407324 -2.85779722 239.17158151 -2.85812589 237.32908977 C-2.86098102 220.03071307 -2.85769314 202.73234165 -2.85232552 185.43396581 C-2.84785745 170.57425642 -2.84863338 155.71455484 -2.85324428 140.85484559 C-2.85858946 123.62058229 -2.86070633 106.38632364 -2.85763202 89.15205962 C-2.85731345 87.31614644 -2.85699908 85.48023326 -2.85668895 83.64432008 C-2.85645754 82.28917754 -2.85645754 82.28917754 -2.85622145 80.90665839 C-2.85535613 74.5241367 -2.85681951 68.14161793 -2.85916851 61.75909669 C-2.86196608 53.98650456 -2.86122916 46.21392254 -2.85588776 38.44133157 C-2.85325016 34.47167274 -2.85224667 30.50203079 -2.85553692 26.53237207 C-2.85849869 22.90428528 -2.85690908 19.27623115 -2.85155936 15.64814735 C-2.84989848 13.70139584 -2.8531938 11.75464208 -2.85661659 9.80789287 C-2.85400885 8.66744817 -2.8514011 7.52700346 -2.84871433 6.35199983 C-2.84855198 5.35957324 -2.84838962 4.36714665 -2.84822235 3.34464652 C-2.69840111 0.69149435 -2.66195063 0.1929247 0 0 Z " fill="#FEFEFE" transform="translate(2.7228731887880713,1311.875134875765)"/>
<path d="M0 0 C0.75828596 0.00006401 1.51657192 0.00012801 2.29783624 0.00019396 C3.17189346 -0.00215894 4.04595069 -0.00451183 4.9464945 -0.00693603 C5.92033973 -0.00442715 6.89418496 -0.00191828 7.89754065 0.00066663 C8.9272656 -0.00061146 9.95699055 -0.00188954 11.01791929 -0.00320636 C14.52179475 -0.00630654 18.02562644 -0.00218343 21.52950051 0.0018173 C24.05640498 0.00107865 26.58330936 -0.00009887 29.11021345 -0.0016792 C34.64918235 -0.00412117 40.18813755 -0.00341069 45.72710571 -0.00001806 C54.01914618 0.00504103 62.31117928 0.00435862 70.60322074 0.00251537 C84.73192118 -0.00045709 98.86061751 0.00133017 112.98931744 0.00565965 C127.31646954 0.01003066 141.6436195 0.01223306 155.97077229 0.01175744 C157.3257989 0.0117144 157.3257989 0.0117144 158.70819979 0.0116705 C163.31401168 0.01151413 167.91982356 0.01132218 172.52563544 0.01111766 C205.90309733 0.00970842 239.28055731 0.01314702 272.65801861 0.01913507 C305.7231979 0.02505294 338.78837637 0.02890924 371.85355618 0.02998788 C372.87956877 0.03002229 373.90558137 0.0300567 374.96268525 0.03009216 C384.33341587 0.03040535 393.7041465 0.03069304 403.07487712 0.03095013 C426.37183897 0.03158962 449.66880081 0.03254899 472.96576264 0.03372533 C474.55728721 0.03380531 474.55728721 0.03380531 476.18096379 0.0338869 C527.82198654 0.03650986 579.46300875 0.04281801 631.10403111 0.04942567 C649.02973097 0.05171728 666.95543084 0.05399263 684.88113072 0.05620057 C685.9928499 0.05633752 687.10456908 0.05647447 688.24997672 0.05661557 C739.90896325 0.06295698 791.56794987 0.06668438 843.22693669 0.06973537 C846.57973675 0.06993343 849.93253682 0.07013263 853.28533688 0.07033205 C875.50409254 0.0716518 897.72284821 0.07292646 919.94160388 0.07417091 C964.15327065 0.07664756 1008.36493741 0.07938925 1052.57660416 0.08231295 C1054.68218751 0.08245219 1056.78777087 0.08259125 1058.89335422 0.08273012 C1123.76253526 0.08700946 1188.63171612 0.09248524 1253.50089695 0.0992151 C1256.11803733 0.09948593 1258.7351777 0.09975676 1261.35231808 0.10002749 C1333.99392107 0.10757899 1406.63552392 0.11638491 1479.27712681 0.12486512 C1479.27712681 108.69486512 1479.27712681 217.26486512 1479.27712681 329.12486512 C1306.70583344 329.14501116 1306.70583344 329.14501116 1258.99326322 329.14994679 C1256.21072559 329.15023472 1253.42818796 329.15052269 1250.64565033 329.15081137 C1185.67628722 329.15755097 1120.70692408 329.16292337 1055.73756077 329.16720826 C1053.62878982 329.16734771 1051.52001887 329.16748717 1049.41124791 329.16762662 C1005.15094323 329.17054909 960.89063853 329.17326583 916.63033381 329.1757448 C894.39805558 329.17699023 872.16577734 329.1782752 849.93349911 329.17959757 C846.57977175 329.17979681 843.22604439 329.17999493 839.87231703 329.180193 C788.20858809 329.18325423 736.54485937 329.18716538 684.88113072 329.19352968 C683.21396698 329.19373502 683.21396698 329.19373502 681.51312317 329.19394452 C663.5925339 329.19615699 645.67194465 329.19844056 627.75135539 329.20073356 C576.15615787 329.20733428 524.56096054 329.21341219 472.96576264 329.21600492 C471.90551843 329.21605845 470.84527423 329.21611199 469.75290142 329.21616715 C446.48211618 329.21733271 423.21133094 329.21822766 399.94054568 329.21886611 C390.57821584 329.21912774 381.21588601 329.21942836 371.85355618 329.21974237 C370.82886804 329.21977579 369.8041799 329.21980922 368.74844061 329.21984366 C335.69239829 329.22094142 302.63635732 329.22521695 269.58031555 329.23114733 C236.30186679 329.23710314 203.02341933 329.23996684 169.74497002 329.23848911 C165.15357078 329.23828601 160.56217153 329.23811864 155.97077229 329.23797281 C155.07067172 329.23794293 154.17057116 329.23791304 153.24319482 329.23788226 C138.95022867 329.23750056 124.65726527 329.24049517 110.36429987 329.24487499 C96.33393365 329.24910572 82.30357102 329.24981578 68.27320447 329.24669694 C60.03194816 329.24497335 51.79070316 329.24603434 43.54944815 329.25108213 C37.45486691 329.25451469 31.36029909 329.25281666 25.26571758 329.2490051 C22.79785182 329.24828371 20.32998488 329.24928256 17.86212062 329.25210037 C14.54057311 329.25565606 11.21908612 329.2531863 7.89754065 329.24906362 C6.4367728 329.25282694 6.4367728 329.25282694 4.9464945 329.25666628 C4.07243727 329.25431338 3.19838005 329.25196049 2.29783624 329.24953629 C1.53955028 329.2496003 0.78126432 329.2496643 0 329.24973025 C-1.72287319 329.12486512 -1.72287319 329.12486512 -2.72287319 328.12486512 C-2.82113577 326.38475423 -2.84842921 324.64061349 -2.84871433 322.89773042 C-2.85132208 321.75728572 -2.85392982 320.61684101 -2.85661659 319.44183738 C-2.85438587 318.17309225 -2.85215515 316.90434712 -2.84985683 315.59715516 C-2.8510077 314.24819465 -2.852595 312.89923445 -2.85458408 311.55027492 C-2.85878207 307.82614182 -2.8566846 304.10203414 -2.85359786 300.37790091 C-2.85134588 296.36831682 -2.85482236 292.35873727 -2.85757778 288.34915406 C-2.86203665 280.48755122 -2.86105849 272.62595789 -2.85816514 264.76435466 C-2.85591156 258.37803903 -2.85559838 251.99172608 -2.85668895 245.60541017 C-2.85684219 244.69829126 -2.85699542 243.79117234 -2.8571533 242.85656498 C-2.85747301 241.01407324 -2.85779722 239.17158151 -2.85812589 237.32908977 C-2.86098102 220.03071307 -2.85769314 202.73234165 -2.85232552 185.43396581 C-2.84785745 170.57425642 -2.84863338 155.71455484 -2.85324428 140.85484559 C-2.85858946 123.62058229 -2.86070633 106.38632364 -2.85763202 89.15205962 C-2.85731345 87.31614644 -2.85699908 85.48023326 -2.85668895 83.64432008 C-2.85645754 82.28917754 -2.85645754 82.28917754 -2.85622145 80.90665839 C-2.85535613 74.5241367 -2.85681951 68.14161793 -2.85916851 61.75909669 C-2.86196608 53.98650456 -2.86122916 46.21392254 -2.85588776 38.44133157 C-2.85325016 34.47167274 -2.85224667 30.50203079 -2.85553692 26.53237207 C-2.85849869 22.90428528 -2.85690908 19.27623115 -2.85155936 15.64814735 C-2.84989848 13.70139584 -2.8531938 11.75464208 -2.85661659 9.80789287 C-2.85400885 8.66744817 -2.8514011 7.52700346 -2.84871433 6.35199983 C-2.84855198 5.35957324 -2.84838962 4.36714665 -2.84822235 3.34464652 C-2.69840111 0.69149435 -2.66195063 0.1929247 0 0 Z " fill="#FEFEFE" transform="translate(2.7228731887880713,655.8751348757651)"/>
<path d="M0 0 C0.75828596 0.00006401 1.51657192 0.00012801 2.29783624 0.00019396 C3.17189346 -0.00215894 4.04595069 -0.00451183 4.9464945 -0.00693603 C5.92033973 -0.00442715 6.89418496 -0.00191828 7.89754065 0.00066663 C8.9272656 -0.00061146 9.95699055 -0.00188954 11.01791929 -0.00320636 C14.52179475 -0.00630654 18.02562644 -0.00218343 21.52950051 0.0018173 C24.05640498 0.00107865 26.58330936 -0.00009887 29.11021345 -0.0016792 C34.64918235 -0.00412117 40.18813755 -0.00341069 45.72710571 -0.00001806 C54.01914618 0.00504103 62.31117928 0.00435862 70.60322074 0.00251537 C84.73192118 -0.00045709 98.86061751 0.00133017 112.98931744 0.00565965 C127.31646954 0.01003066 141.6436195 0.01223306 155.97077229 0.01175744 C157.3257989 0.0117144 157.3257989 0.0117144 158.70819979 0.0116705 C163.31401168 0.01151413 167.91982356 0.01132218 172.52563544 0.01111766 C205.90309733 0.00970842 239.28055731 0.01314702 272.65801861 0.01913507 C305.7231979 0.02505294 338.78837637 0.02890924 371.85355618 0.02998788 C372.87956877 0.03002229 373.90558137 0.0300567 374.96268525 0.03009216 C384.33341587 0.03040535 393.7041465 0.03069304 403.07487712 0.03095013 C426.37183897 0.03158962 449.66880081 0.03254899 472.96576264 0.03372533 C474.55728721 0.03380531 474.55728721 0.03380531 476.18096379 0.0338869 C527.82198654 0.03650986 579.46300875 0.04281801 631.10403111 0.04942567 C649.02973097 0.05171728 666.95543084 0.05399263 684.88113072 0.05620057 C685.9928499 0.05633752 687.10456908 0.05647447 688.24997672 0.05661557 C739.90896325 0.06295698 791.56794987 0.06668438 843.22693669 0.06973537 C846.57973675 0.06993343 849.93253682 0.07013263 853.28533688 0.07033205 C875.50409254 0.0716518 897.72284821 0.07292646 919.94160388 0.07417091 C964.15327065 0.07664756 1008.36493741 0.07938925 1052.57660416 0.08231295 C1054.68218751 0.08245219 1056.78777087 0.08259125 1058.89335422 0.08273012 C1123.76253526 0.08700946 1188.63171612 0.09248524 1253.50089695 0.0992151 C1256.11803733 0.09948593 1258.7351777 0.09975676 1261.35231808 0.10002749 C1333.99392107 0.10757899 1406.63552392 0.11638491 1479.27712681 0.12486512 C1479.27712681 108.69486512 1479.27712681 217.26486512 1479.27712681 329.12486512 C1306.70583344 329.14501116 1306.70583344 329.14501116 1258.99326322 329.14994679 C1256.21072559 329.15023472 1253.42818796 329.15052269 1250.64565033 329.15081137 C1185.67628722 329.15755097 1120.70692408 329.16292337 1055.73756077 329.16720826 C1053.62878982 329.16734771 1051.52001887 329.16748717 1049.41124791 329.16762662 C1005.15094323 329.17054909 960.89063853 329.17326583 916.63033381 329.1757448 C894.39805558 329.17699023 872.16577734 329.1782752 849.93349911 329.17959757 C846.57977175 329.17979681 843.22604439 329.17999493 839.87231703 329.180193 C788.20858809 329.18325423 736.54485937 329.18716538 684.88113072 329.19352968 C683.21396698 329.19373502 683.21396698 329.19373502 681.51312317 329.19394452 C663.5925339 329.19615699 645.67194465 329.19844056 627.75135539 329.20073356 C576.15615787 329.20733428 524.56096054 329.21341219 472.96576264 329.21600492 C471.90551843 329.21605845 470.84527423 329.21611199 469.75290142 329.21616715 C446.48211618 329.21733271 423.21133094 329.21822766 399.94054568 329.21886611 C390.57821584 329.21912774 381.21588601 329.21942836 371.85355618 329.21974237 C370.82886804 329.21977579 369.8041799 329.21980922 368.74844061 329.21984366 C335.69239829 329.22094142 302.63635732 329.22521695 269.58031555 329.23114733 C236.30186679 329.23710314 203.02341933 329.23996684 169.74497002 329.23848911 C165.15357078 329.23828601 160.56217153 329.23811864 155.97077229 329.23797281 C155.07067172 329.23794293 154.17057116 329.23791304 153.24319482 329.23788226 C138.95022867 329.23750056 124.65726527 329.24049517 110.36429987 329.24487499 C96.33393365 329.24910572 82.30357102 329.24981578 68.27320447 329.24669694 C60.03194816 329.24497335 51.79070316 329.24603434 43.54944815 329.25108213 C37.45486691 329.25451469 31.36029909 329.25281666 25.26571758 329.2490051 C22.79785182 329.24828371 20.32998488 329.24928256 17.86212062 329.25210037 C14.54057311 329.25565606 11.21908612 329.2531863 7.89754065 329.24906362 C6.4367728 329.25282694 6.4367728 329.25282694 4.9464945 329.25666628 C4.07243727 329.25431338 3.19838005 329.25196049 2.29783624 329.24953629 C1.53955028 329.2496003 0.78126432 329.2496643 0 329.24973025 C-1.72287319 329.12486512 -1.72287319 329.12486512 -2.72287319 328.12486512 C-2.82113577 326.38475423 -2.84842921 324.64061349 -2.84871433 322.89773042 C-2.85132208 321.75728572 -2.85392982 320.61684101 -2.85661659 319.44183738 C-2.85438587 318.17309225 -2.85215515 316.90434712 -2.84985683 315.59715516 C-2.8510077 314.24819465 -2.852595 312.89923445 -2.85458408 311.55027492 C-2.85878207 307.82614182 -2.8566846 304.10203414 -2.85359786 300.37790091 C-2.85134588 296.36831682 -2.85482236 292.35873727 -2.85757778 288.34915406 C-2.86203665 280.48755122 -2.86105849 272.62595789 -2.85816514 264.76435466 C-2.85591156 258.37803903 -2.85559838 251.99172608 -2.85668895 245.60541017 C-2.85684219 244.69829126 -2.85699542 243.79117234 -2.8571533 242.85656498 C-2.85747301 241.01407324 -2.85779722 239.17158151 -2.85812589 237.32908977 C-2.86098102 220.03071307 -2.85769314 202.73234165 -2.85232552 185.43396581 C-2.84785745 170.57425642 -2.84863338 155.71455484 -2.85324428 140.85484559 C-2.85858946 123.62058229 -2.86070633 106.38632364 -2.85763202 89.15205962 C-2.85731345 87.31614644 -2.85699908 85.48023326 -2.85668895 83.64432008 C-2.85645754 82.28917754 -2.85645754 82.28917754 -2.85622145 80.90665839 C-2.85535613 74.5241367 -2.85681951 68.14161793 -2.85916851 61.75909669 C-2.86196608 53.98650456 -2.86122916 46.21392254 -2.85588776 38.44133157 C-2.85325016 34.47167274 -2.85224667 30.50203079 -2.85553692 26.53237207 C-2.85849869 22.90428528 -2.85690908 19.27623115 -2.85155936 15.64814735 C-2.84989848 13.70139584 -2.8531938 11.75464208 -2.85661659 9.80789287 C-2.85400885 8.66744817 -2.8514011 7.52700346 -2.84871433 6.35199983 C-2.84855198 5.35957324 -2.84838962 4.36714665 -2.84822235 3.34464652 C-2.69840111 0.69149435 -2.66195063 0.1929247 0 0 Z " fill="#FEFEFE" transform="translate(2.7228731887880713,-0.12486512423492968)"/>
</svg>
